<?xml version="1.0" encoding="utf-8" standalone="no"?>
<!DOCTYPE svg PUBLIC "-//W3C//DTD SVG 1.1//EN"
  "http://www.w3.org/Graphics/SVG/1.1/DTD/svg11.dtd">
<svg height="701.28pt" version="1.1" viewBox="0 0 1353.6 701.28" width="1353.6pt" xmlns="http://www.w3.org/2000/svg" xmlns:xlink="http://www.w3.org/1999/xlink">
 <metadata>
  <rdf:RDF xmlns:cc="http://creativecommons.org/ns#" xmlns:dc="http://purl.org/dc/elements/1.1/" xmlns:rdf="http://www.w3.org/1999/02/22-rdf-syntax-ns#">
   <cc:Work>
    <dc:type rdf:resource="http://purl.org/dc/dcmitype/StillImage"/>
    <dc:date>2021-11-30T15:06:40.739458</dc:date>
    <dc:format>image/svg+xml</dc:format>
    <dc:creator>
     <cc:Agent>
      <dc:title>Matplotlib v3.4.3, https://matplotlib.org/</dc:title>
     </cc:Agent>
    </dc:creator>
   </cc:Work>
  </rdf:RDF>
 </metadata>
 <defs>
  <style type="text/css">*{stroke-linecap:butt;stroke-linejoin:round;}</style>
 </defs>
 <g id="figure_1">
  <g id="patch_1">
   <path d="M 0 701.28 
L 1353.6 701.28 
L 1353.6 0 
L 0 0 
z
" style="fill:#ffffff;"/>
  </g>
  <g id="axes_1">
   <g id="patch_2">
    <path d="M 169.2 624.1392 
L 1218.24 624.1392 
L 1218.24 84.1536 
L 169.2 84.1536 
z
" style="fill:#ffffff;"/>
   </g>
   <g id="matplotlib.axis_1">
    <g id="xtick_1">
     <g id="line2d_1">
      <defs>
       <path d="M 0 0 
L 0 3.5 
" id="m509bf59f61" style="stroke:#000000;stroke-width:0.8;"/>
      </defs>
      <g>
       <use style="stroke:#000000;stroke-width:0.8;" x="216.883636" xlink:href="#m509bf59f61" y="624.1392"/>
      </g>
     </g>
     <g id="text_1">
      <!-- 0 -->
      <g transform="translate(213.702386 638.737638)scale(0.1 -0.1)">
       <defs>
        <path d="M 2034 4250 
Q 1547 4250 1301 3770 
Q 1056 3291 1056 2328 
Q 1056 1369 1301 889 
Q 1547 409 2034 409 
Q 2525 409 2770 889 
Q 3016 1369 3016 2328 
Q 3016 3291 2770 3770 
Q 2525 4250 2034 4250 
z
M 2034 4750 
Q 2819 4750 3233 4129 
Q 3647 3509 3647 2328 
Q 3647 1150 3233 529 
Q 2819 -91 2034 -91 
Q 1250 -91 836 529 
Q 422 1150 422 2328 
Q 422 3509 836 4129 
Q 1250 4750 2034 4750 
z
" id="DejaVuSans-30" transform="scale(0.015625)"/>
       </defs>
       <use xlink:href="#DejaVuSans-30"/>
      </g>
     </g>
    </g>
    <g id="xtick_2">
     <g id="line2d_2">
      <g>
       <use style="stroke:#000000;stroke-width:0.8;" x="447.67151" xlink:href="#m509bf59f61" y="624.1392"/>
      </g>
     </g>
     <g id="text_2">
      <!-- 1 -->
      <g transform="translate(444.49026 638.737638)scale(0.1 -0.1)">
       <defs>
        <path d="M 794 531 
L 1825 531 
L 1825 4091 
L 703 3866 
L 703 4441 
L 1819 4666 
L 2450 4666 
L 2450 531 
L 3481 531 
L 3481 0 
L 794 0 
L 794 531 
z
" id="DejaVuSans-31" transform="scale(0.015625)"/>
       </defs>
       <use xlink:href="#DejaVuSans-31"/>
      </g>
     </g>
    </g>
    <g id="xtick_3">
     <g id="line2d_3">
      <g>
       <use style="stroke:#000000;stroke-width:0.8;" x="678.459383" xlink:href="#m509bf59f61" y="624.1392"/>
      </g>
     </g>
     <g id="text_3">
      <!-- 2 -->
      <g transform="translate(675.278133 638.737638)scale(0.1 -0.1)">
       <defs>
        <path d="M 1228 531 
L 3431 531 
L 3431 0 
L 469 0 
L 469 531 
Q 828 903 1448 1529 
Q 2069 2156 2228 2338 
Q 2531 2678 2651 2914 
Q 2772 3150 2772 3378 
Q 2772 3750 2511 3984 
Q 2250 4219 1831 4219 
Q 1534 4219 1204 4116 
Q 875 4013 500 3803 
L 500 4441 
Q 881 4594 1212 4672 
Q 1544 4750 1819 4750 
Q 2544 4750 2975 4387 
Q 3406 4025 3406 3419 
Q 3406 3131 3298 2873 
Q 3191 2616 2906 2266 
Q 2828 2175 2409 1742 
Q 1991 1309 1228 531 
z
" id="DejaVuSans-32" transform="scale(0.015625)"/>
       </defs>
       <use xlink:href="#DejaVuSans-32"/>
      </g>
     </g>
    </g>
    <g id="xtick_4">
     <g id="line2d_4">
      <g>
       <use style="stroke:#000000;stroke-width:0.8;" x="909.247256" xlink:href="#m509bf59f61" y="624.1392"/>
      </g>
     </g>
     <g id="text_4">
      <!-- 3 -->
      <g transform="translate(906.066006 638.737638)scale(0.1 -0.1)">
       <defs>
        <path d="M 2597 2516 
Q 3050 2419 3304 2112 
Q 3559 1806 3559 1356 
Q 3559 666 3084 287 
Q 2609 -91 1734 -91 
Q 1441 -91 1130 -33 
Q 819 25 488 141 
L 488 750 
Q 750 597 1062 519 
Q 1375 441 1716 441 
Q 2309 441 2620 675 
Q 2931 909 2931 1356 
Q 2931 1769 2642 2001 
Q 2353 2234 1838 2234 
L 1294 2234 
L 1294 2753 
L 1863 2753 
Q 2328 2753 2575 2939 
Q 2822 3125 2822 3475 
Q 2822 3834 2567 4026 
Q 2313 4219 1838 4219 
Q 1578 4219 1281 4162 
Q 984 4106 628 3988 
L 628 4550 
Q 988 4650 1302 4700 
Q 1616 4750 1894 4750 
Q 2613 4750 3031 4423 
Q 3450 4097 3450 3541 
Q 3450 3153 3228 2886 
Q 3006 2619 2597 2516 
z
" id="DejaVuSans-33" transform="scale(0.015625)"/>
       </defs>
       <use xlink:href="#DejaVuSans-33"/>
      </g>
     </g>
    </g>
    <g id="xtick_5">
     <g id="line2d_5">
      <g>
       <use style="stroke:#000000;stroke-width:0.8;" x="1140.035129" xlink:href="#m509bf59f61" y="624.1392"/>
      </g>
     </g>
     <g id="text_5">
      <!-- 4 -->
      <g transform="translate(1136.853879 638.737638)scale(0.1 -0.1)">
       <defs>
        <path d="M 2419 4116 
L 825 1625 
L 2419 1625 
L 2419 4116 
z
M 2253 4666 
L 3047 4666 
L 3047 1625 
L 3713 1625 
L 3713 1100 
L 3047 1100 
L 3047 0 
L 2419 0 
L 2419 1100 
L 313 1100 
L 313 1709 
L 2253 4666 
z
" id="DejaVuSans-34" transform="scale(0.015625)"/>
       </defs>
       <use xlink:href="#DejaVuSans-34"/>
      </g>
     </g>
    </g>
   </g>
   <g id="matplotlib.axis_2">
    <g id="ytick_1">
     <g id="line2d_6">
      <defs>
       <path d="M 0 0 
L -3.5 0 
" id="m1d083caab9" style="stroke:#000000;stroke-width:0.8;"/>
      </defs>
      <g>
       <use style="stroke:#000000;stroke-width:0.8;" x="169.2" xlink:href="#m1d083caab9" y="572.107321"/>
      </g>
     </g>
     <g id="text_6">
      <!-- 0 -->
      <g transform="translate(155.8375 575.90654)scale(0.1 -0.1)">
       <use xlink:href="#DejaVuSans-30"/>
      </g>
     </g>
    </g>
    <g id="ytick_2">
     <g id="line2d_7">
      <g>
       <use style="stroke:#000000;stroke-width:0.8;" x="169.2" xlink:href="#m1d083caab9" y="494.67893"/>
      </g>
     </g>
     <g id="text_7">
      <!-- 50 -->
      <g transform="translate(149.475 498.478149)scale(0.1 -0.1)">
       <defs>
        <path d="M 691 4666 
L 3169 4666 
L 3169 4134 
L 1269 4134 
L 1269 2991 
Q 1406 3038 1543 3061 
Q 1681 3084 1819 3084 
Q 2600 3084 3056 2656 
Q 3513 2228 3513 1497 
Q 3513 744 3044 326 
Q 2575 -91 1722 -91 
Q 1428 -91 1123 -41 
Q 819 9 494 109 
L 494 744 
Q 775 591 1075 516 
Q 1375 441 1709 441 
Q 2250 441 2565 725 
Q 2881 1009 2881 1497 
Q 2881 1984 2565 2268 
Q 2250 2553 1709 2553 
Q 1456 2553 1204 2497 
Q 953 2441 691 2322 
L 691 4666 
z
" id="DejaVuSans-35" transform="scale(0.015625)"/>
       </defs>
       <use xlink:href="#DejaVuSans-35"/>
       <use x="63.623047" xlink:href="#DejaVuSans-30"/>
      </g>
     </g>
    </g>
    <g id="ytick_3">
     <g id="line2d_8">
      <g>
       <use style="stroke:#000000;stroke-width:0.8;" x="169.2" xlink:href="#m1d083caab9" y="417.250539"/>
      </g>
     </g>
     <g id="text_8">
      <!-- 100 -->
      <g transform="translate(143.1125 421.049758)scale(0.1 -0.1)">
       <use xlink:href="#DejaVuSans-31"/>
       <use x="63.623047" xlink:href="#DejaVuSans-30"/>
       <use x="127.246094" xlink:href="#DejaVuSans-30"/>
      </g>
     </g>
    </g>
    <g id="ytick_4">
     <g id="line2d_9">
      <g>
       <use style="stroke:#000000;stroke-width:0.8;" x="169.2" xlink:href="#m1d083caab9" y="339.822148"/>
      </g>
     </g>
     <g id="text_9">
      <!-- 150 -->
      <g transform="translate(143.1125 343.621366)scale(0.1 -0.1)">
       <use xlink:href="#DejaVuSans-31"/>
       <use x="63.623047" xlink:href="#DejaVuSans-35"/>
       <use x="127.246094" xlink:href="#DejaVuSans-30"/>
      </g>
     </g>
    </g>
    <g id="ytick_5">
     <g id="line2d_10">
      <g>
       <use style="stroke:#000000;stroke-width:0.8;" x="169.2" xlink:href="#m1d083caab9" y="262.393756"/>
      </g>
     </g>
     <g id="text_10">
      <!-- 200 -->
      <g transform="translate(143.1125 266.192975)scale(0.1 -0.1)">
       <use xlink:href="#DejaVuSans-32"/>
       <use x="63.623047" xlink:href="#DejaVuSans-30"/>
       <use x="127.246094" xlink:href="#DejaVuSans-30"/>
      </g>
     </g>
    </g>
    <g id="ytick_6">
     <g id="line2d_11">
      <g>
       <use style="stroke:#000000;stroke-width:0.8;" x="169.2" xlink:href="#m1d083caab9" y="184.965365"/>
      </g>
     </g>
     <g id="text_11">
      <!-- 250 -->
      <g transform="translate(143.1125 188.764584)scale(0.1 -0.1)">
       <use xlink:href="#DejaVuSans-32"/>
       <use x="63.623047" xlink:href="#DejaVuSans-35"/>
       <use x="127.246094" xlink:href="#DejaVuSans-30"/>
      </g>
     </g>
    </g>
    <g id="ytick_7">
     <g id="line2d_12">
      <g>
       <use style="stroke:#000000;stroke-width:0.8;" x="169.2" xlink:href="#m1d083caab9" y="107.536974"/>
      </g>
     </g>
     <g id="text_12">
      <!-- 300 -->
      <g transform="translate(143.1125 111.336193)scale(0.1 -0.1)">
       <use xlink:href="#DejaVuSans-33"/>
       <use x="63.623047" xlink:href="#DejaVuSans-30"/>
       <use x="127.246094" xlink:href="#DejaVuSans-30"/>
      </g>
     </g>
    </g>
   </g>
   <g id="line2d_13">
    <path clip-path="url(#p5ceb829b25)" d="M 216.883636 599.5944 
L 224.303928 565.525908 
L 233.280653 533.005984 
L 244.561564 478.80611 
L 255.842476 444.737618 
L 267.123387 371.95493 
L 278.404298 339.435006 
L 289.685209 272.846589 
L 300.966121 214.001012 
L 312.247032 189.223927 
L 323.527943 144.31546 
L 334.808854 125.732646 
L 346.089766 108.6984 
L 357.370677 108.6984 
L 368.651588 114.892671 
L 379.932499 125.732646 
L 391.213411 142.766892 
L 402.494322 155.155435 
L 413.775233 162.898274 
L 425.056144 167.543977 
L 436.337055 172.189681 
L 447.617967 165.995409 
L 459.138897 164.446842 
L 470.659828 165.995409 
L 482.180759 161.349706 
L 493.701689 155.155435 
L 504.9826 156.704003 
L 516.263512 150.509731 
L 527.544423 150.509731 
L 538.825334 145.864028 
L 550.106245 144.31546 
L 561.387157 144.31546 
L 572.668068 142.766892 
L 583.948979 139.669756 
L 595.22989 142.766892 
L 606.510802 145.864028 
L 617.791713 144.31546 
L 629.072624 144.31546 
L 640.353535 147.412596 
L 651.634447 148.961163 
L 662.915358 144.31546 
L 674.196269 145.864028 
L 685.47718 144.31546 
L 696.758092 144.31546 
L 708.039003 142.766892 
L 719.319914 147.412596 
L 730.600825 145.864028 
L 741.881737 144.31546 
L 753.162648 144.31546 
L 764.443559 142.766892 
L 775.72447 144.31546 
L 787.005381 139.669756 
L 798.286293 141.218324 
L 809.567204 142.766892 
L 820.848115 142.766892 
L 832.129026 147.412596 
L 843.409938 145.864028 
L 854.690849 141.218324 
L 865.97176 141.218324 
L 877.252671 145.864028 
L 888.534506 142.766892 
L 899.814494 142.766892 
L 911.095405 139.669756 
L 922.376316 142.766892 
L 933.657228 142.766892 
L 944.938139 139.669756 
L 956.21905 148.961163 
L 967.499961 144.31546 
L 978.780873 144.31546 
L 990.061784 144.31546 
L 1001.342695 141.218324 
L 1012.623606 142.766892 
L 1023.904518 144.31546 
L 1035.185429 141.218324 
L 1046.46634 141.218324 
L 1057.747251 144.31546 
L 1069.028162 148.961163 
L 1080.309074 144.31546 
L 1091.589985 147.412596 
L 1102.870896 142.766892 
L 1114.151807 147.412596 
L 1125.432719 145.864028 
L 1136.71363 147.412596 
L 1147.994541 142.766892 
L 1159.275452 144.31546 
L 1170.556364 144.31546 
" style="fill:none;stroke:#1f77b4;stroke-linecap:square;stroke-width:1.5;"/>
   </g>
   <g id="line2d_14">
    <path clip-path="url(#p5ceb829b25)" d="M 216.883636 572.107321 
L 224.303928 562.8263 
L 233.280653 531.71357 
L 244.561564 473.197748 
L 255.842476 404.843858 
L 267.123387 336.078266 
L 278.404298 273.216968 
L 289.685209 219.936618 
L 300.966121 177.825434 
L 312.247032 146.937806 
L 323.527943 126.301534 
L 334.808854 114.347953 
L 346.089766 109.252023 
L 357.370677 109.181913 
L 368.651588 112.465854 
L 379.932499 117.688904 
L 391.213411 123.734329 
L 402.494322 129.784371 
L 413.775233 135.293896 
L 425.056144 139.948351 
L 436.337055 143.615036 
L 447.617967 146.294309 
L 459.138897 148.104221 
L 470.659828 149.126556 
L 482.180759 149.53341 
L 493.701689 149.495855 
L 504.9826 149.17719 
L 516.263512 148.702023 
L 527.544423 148.165303 
L 538.825334 147.635804 
L 550.106245 147.158691 
L 561.387157 146.759341 
L 572.668068 146.447671 
L 583.948979 146.222409 
L 595.22989 146.074943 
L 606.510802 145.992549 
L 617.791713 145.960902 
L 629.072624 145.965902 
L 640.353535 145.994863 
L 651.634447 146.037184 
L 662.915358 146.084601 
L 674.196269 146.131151 
L 685.47718 146.172943 
L 696.758092 146.207809 
L 708.039003 146.23493 
L 719.319914 146.254455 
L 730.600825 146.267165 
L 741.881737 146.274194 
L 753.162648 146.276808 
L 764.443559 146.276245 
L 775.72447 146.273617 
L 787.005381 146.26985 
L 798.286293 146.265662 
L 809.567204 146.261571 
L 820.848115 146.257911 
L 832.129026 146.254867 
L 843.409938 146.252507 
L 854.690849 146.250815 
L 865.97176 146.24972 
L 877.252671 146.249121 
L 888.534506 146.248906 
L 899.814494 146.248966 
L 911.095405 146.249204 
L 922.376316 146.249539 
L 933.657228 146.249909 
L 944.938139 146.250269 
L 956.21905 146.250589 
L 967.499961 146.250855 
L 978.780873 146.25106 
L 990.061784 146.251207 
L 1001.342695 146.251301 
L 1012.623606 146.251352 
L 1023.904518 146.25137 
L 1035.185429 146.251363 
L 1046.46634 146.251342 
L 1057.747251 146.251312 
L 1069.028162 146.251279 
L 1080.309074 146.251248 
L 1091.589985 146.25122 
L 1102.870896 146.251197 
L 1114.151807 146.251179 
L 1125.432719 146.251166 
L 1136.71363 146.251158 
L 1147.994541 146.251154 
L 1159.275452 146.251152 
L 1170.556364 146.251153 
" style="fill:none;stroke:#ff7f0e;stroke-linecap:square;stroke-width:1.5;"/>
   </g>
   <g id="patch_3">
    <path d="M 169.2 624.1392 
L 169.2 84.1536 
" style="fill:none;stroke:#000000;stroke-linecap:square;stroke-linejoin:miter;stroke-width:0.8;"/>
   </g>
   <g id="patch_4">
    <path d="M 1218.24 624.1392 
L 1218.24 84.1536 
" style="fill:none;stroke:#000000;stroke-linecap:square;stroke-linejoin:miter;stroke-width:0.8;"/>
   </g>
   <g id="patch_5">
    <path d="M 169.2 624.1392 
L 1218.24 624.1392 
" style="fill:none;stroke:#000000;stroke-linecap:square;stroke-linejoin:miter;stroke-width:0.8;"/>
   </g>
   <g id="patch_6">
    <path d="M 169.2 84.1536 
L 1218.24 84.1536 
" style="fill:none;stroke:#000000;stroke-linecap:square;stroke-linejoin:miter;stroke-width:0.8;"/>
   </g>
   <g id="legend_1">
    <g id="patch_7">
     <path d="M 1139.2275 121.50985 
L 1211.24 121.50985 
Q 1213.24 121.50985 1213.24 119.50985 
L 1213.24 91.1536 
Q 1213.24 89.1536 1211.24 89.1536 
L 1139.2275 89.1536 
Q 1137.2275 89.1536 1137.2275 91.1536 
L 1137.2275 119.50985 
Q 1137.2275 121.50985 1139.2275 121.50985 
z
" style="fill:#ffffff;opacity:0.8;stroke:#cccccc;stroke-linejoin:miter;"/>
    </g>
    <g id="line2d_15">
     <path d="M 1141.2275 97.252038 
L 1161.2275 97.252038 
" style="fill:none;stroke:#1f77b4;stroke-linecap:square;stroke-width:1.5;"/>
    </g>
    <g id="line2d_16"/>
    <g id="text_13">
     <!-- observe -->
     <g transform="translate(1169.2275 100.752038)scale(0.1 -0.1)">
      <defs>
       <path d="M 1959 3097 
Q 1497 3097 1228 2736 
Q 959 2375 959 1747 
Q 959 1119 1226 758 
Q 1494 397 1959 397 
Q 2419 397 2687 759 
Q 2956 1122 2956 1747 
Q 2956 2369 2687 2733 
Q 2419 3097 1959 3097 
z
M 1959 3584 
Q 2709 3584 3137 3096 
Q 3566 2609 3566 1747 
Q 3566 888 3137 398 
Q 2709 -91 1959 -91 
Q 1206 -91 779 398 
Q 353 888 353 1747 
Q 353 2609 779 3096 
Q 1206 3584 1959 3584 
z
" id="DejaVuSans-6f" transform="scale(0.015625)"/>
       <path d="M 3116 1747 
Q 3116 2381 2855 2742 
Q 2594 3103 2138 3103 
Q 1681 3103 1420 2742 
Q 1159 2381 1159 1747 
Q 1159 1113 1420 752 
Q 1681 391 2138 391 
Q 2594 391 2855 752 
Q 3116 1113 3116 1747 
z
M 1159 2969 
Q 1341 3281 1617 3432 
Q 1894 3584 2278 3584 
Q 2916 3584 3314 3078 
Q 3713 2572 3713 1747 
Q 3713 922 3314 415 
Q 2916 -91 2278 -91 
Q 1894 -91 1617 61 
Q 1341 213 1159 525 
L 1159 0 
L 581 0 
L 581 4863 
L 1159 4863 
L 1159 2969 
z
" id="DejaVuSans-62" transform="scale(0.015625)"/>
       <path d="M 2834 3397 
L 2834 2853 
Q 2591 2978 2328 3040 
Q 2066 3103 1784 3103 
Q 1356 3103 1142 2972 
Q 928 2841 928 2578 
Q 928 2378 1081 2264 
Q 1234 2150 1697 2047 
L 1894 2003 
Q 2506 1872 2764 1633 
Q 3022 1394 3022 966 
Q 3022 478 2636 193 
Q 2250 -91 1575 -91 
Q 1294 -91 989 -36 
Q 684 19 347 128 
L 347 722 
Q 666 556 975 473 
Q 1284 391 1588 391 
Q 1994 391 2212 530 
Q 2431 669 2431 922 
Q 2431 1156 2273 1281 
Q 2116 1406 1581 1522 
L 1381 1569 
Q 847 1681 609 1914 
Q 372 2147 372 2553 
Q 372 3047 722 3315 
Q 1072 3584 1716 3584 
Q 2034 3584 2315 3537 
Q 2597 3491 2834 3397 
z
" id="DejaVuSans-73" transform="scale(0.015625)"/>
       <path d="M 3597 1894 
L 3597 1613 
L 953 1613 
Q 991 1019 1311 708 
Q 1631 397 2203 397 
Q 2534 397 2845 478 
Q 3156 559 3463 722 
L 3463 178 
Q 3153 47 2828 -22 
Q 2503 -91 2169 -91 
Q 1331 -91 842 396 
Q 353 884 353 1716 
Q 353 2575 817 3079 
Q 1281 3584 2069 3584 
Q 2775 3584 3186 3129 
Q 3597 2675 3597 1894 
z
M 3022 2063 
Q 3016 2534 2758 2815 
Q 2500 3097 2075 3097 
Q 1594 3097 1305 2825 
Q 1016 2553 972 2059 
L 3022 2063 
z
" id="DejaVuSans-65" transform="scale(0.015625)"/>
       <path d="M 2631 2963 
Q 2534 3019 2420 3045 
Q 2306 3072 2169 3072 
Q 1681 3072 1420 2755 
Q 1159 2438 1159 1844 
L 1159 0 
L 581 0 
L 581 3500 
L 1159 3500 
L 1159 2956 
Q 1341 3275 1631 3429 
Q 1922 3584 2338 3584 
Q 2397 3584 2469 3576 
Q 2541 3569 2628 3553 
L 2631 2963 
z
" id="DejaVuSans-72" transform="scale(0.015625)"/>
       <path d="M 191 3500 
L 800 3500 
L 1894 563 
L 2988 3500 
L 3597 3500 
L 2284 0 
L 1503 0 
L 191 3500 
z
" id="DejaVuSans-76" transform="scale(0.015625)"/>
      </defs>
      <use xlink:href="#DejaVuSans-6f"/>
      <use x="61.181641" xlink:href="#DejaVuSans-62"/>
      <use x="124.658203" xlink:href="#DejaVuSans-73"/>
      <use x="176.757812" xlink:href="#DejaVuSans-65"/>
      <use x="238.28125" xlink:href="#DejaVuSans-72"/>
      <use x="279.394531" xlink:href="#DejaVuSans-76"/>
      <use x="338.574219" xlink:href="#DejaVuSans-65"/>
     </g>
    </g>
    <g id="line2d_17">
     <path d="M 1141.2275 111.930163 
L 1161.2275 111.930163 
" style="fill:none;stroke:#ff7f0e;stroke-linecap:square;stroke-width:1.5;"/>
    </g>
    <g id="line2d_18"/>
    <g id="text_14">
     <!-- fit -->
     <g transform="translate(1169.2275 115.430163)scale(0.1 -0.1)">
      <defs>
       <path d="M 2375 4863 
L 2375 4384 
L 1825 4384 
Q 1516 4384 1395 4259 
Q 1275 4134 1275 3809 
L 1275 3500 
L 2222 3500 
L 2222 3053 
L 1275 3053 
L 1275 0 
L 697 0 
L 697 3053 
L 147 3053 
L 147 3500 
L 697 3500 
L 697 3744 
Q 697 4328 969 4595 
Q 1241 4863 1831 4863 
L 2375 4863 
z
" id="DejaVuSans-66" transform="scale(0.015625)"/>
       <path d="M 603 3500 
L 1178 3500 
L 1178 0 
L 603 0 
L 603 3500 
z
M 603 4863 
L 1178 4863 
L 1178 4134 
L 603 4134 
L 603 4863 
z
" id="DejaVuSans-69" transform="scale(0.015625)"/>
       <path d="M 1172 4494 
L 1172 3500 
L 2356 3500 
L 2356 3053 
L 1172 3053 
L 1172 1153 
Q 1172 725 1289 603 
Q 1406 481 1766 481 
L 2356 481 
L 2356 0 
L 1766 0 
Q 1100 0 847 248 
Q 594 497 594 1153 
L 594 3053 
L 172 3053 
L 172 3500 
L 594 3500 
L 594 4494 
L 1172 4494 
z
" id="DejaVuSans-74" transform="scale(0.015625)"/>
      </defs>
      <use xlink:href="#DejaVuSans-66"/>
      <use x="35.205078" xlink:href="#DejaVuSans-69"/>
      <use x="62.988281" xlink:href="#DejaVuSans-74"/>
     </g>
    </g>
   </g>
  </g>
 </g>
 <defs>
  <clipPath id="p5ceb829b25">
   <rect height="539.9856" width="1049.04" x="169.2" y="84.1536"/>
  </clipPath>
 </defs>
</svg>
